<svg width="512" height="768" viewBox="0 0 512 768" fill="none" xmlns="http://www.w3.org/2000/svg">
<rect width="512" height="768" fill="url(#paint0_linear_111_191)"/>
<path d="M188.5 425.5V317C188.5 315.895 189.395 315 190.5 315H220.026C221.121 315 222.012 315.879 222.026 316.973L222.113 323.5H252.981C254.093 323.5 254.991 324.407 254.981 325.519L254.832 341H282.5C283.605 341 284.5 341.895 284.5 343V425.5C284.5 426.605 283.605 427.5 282.5 427.5H254H223.5H190.5C189.395 427.5 188.5 426.605 188.5 425.5Z" fill="white"/>
<path d="M312.663 339.312L327.636 426.154C327.832 427.289 327.031 428.354 325.886 428.482L303.409 430.977C302.377 431.092 301.429 430.397 301.227 429.378L284.5 345C284.286 343.921 284.983 342.872 286.061 342.652L310.291 337.692C311.397 337.466 312.471 338.199 312.663 339.312Z" fill="white"/>
<path d="M223.5 427.5H190.5C189.395 427.5 188.5 426.605 188.5 425.5V317C188.5 315.895 189.395 315 190.5 315H220.026C221.121 315 222.012 315.879 222.026 316.973L222.113 323.5M223.5 427.5L222.113 323.5M223.5 427.5H254M222.113 323.5H252.981C254.093 323.5 254.991 324.407 254.981 325.519L254.832 341M254 427.5L254.832 341M254 427.5H282.5C283.605 427.5 284.5 426.605 284.5 425.5V343C284.5 341.895 283.605 341 282.5 341H254.832M327.636 426.154L312.663 339.312C312.471 338.199 311.397 337.466 310.291 337.692L286.061 342.652C284.983 342.872 284.286 343.921 284.5 345L301.227 429.378C301.429 430.397 302.377 431.092 303.409 430.977L325.886 428.482C327.031 428.354 327.832 427.289 327.636 426.154ZM167 433.978H346C347.105 433.978 348 434.874 348 435.978V450.956C348 452.069 347.091 452.968 345.978 452.956L166.978 451C165.882 450.988 165 450.096 165 449V435.978C165 434.874 165.895 433.978 167 433.978Z" stroke="#868686"/>
<path d="M201.761 327.909C200.77 329.908 202.841 332.882 203.949 334.256C204.338 334.737 204.948 334.967 205.558 334.863C207.31 334.565 210.901 333.703 211.76 331.562L211.766 331.546C212.39 329.99 213.049 328.348 211.76 327.265C211.399 326.962 210.926 326.898 210.421 326.97C208.862 327.192 207.091 326.206 205.806 325.297C205.697 325.221 205.581 325.159 205.456 325.116C203.741 324.526 202.561 326.297 201.761 327.909Z" stroke="white"/>
<path d="M343.066 426.018L181.482 427.482C180.384 427.492 179.5 428.384 179.5 429.482V447.5C179.5 448.605 180.395 449.5 181.5 449.5H343.913C345.051 449.5 345.96 448.552 345.911 447.415L345.082 427.932C345.036 426.855 344.144 426.008 343.066 426.018Z" fill="white" stroke="#868686"/>
<path d="M308.998 418.133C308.957 417.924 308.284 414.464 308.284 414.464L315.315 413.023C315.315 413.023 316.324 416.87 316.377 417.011C316.43 417.153 319.541 419.447 318.863 419.905C318.185 420.363 315.379 417.922 314.849 418.221C314.319 418.52 315.742 421.21 315.257 421.479C314.773 421.747 313.079 418.72 312.639 418.828C312.2 418.936 311.988 422.293 311.315 422.252C310.642 422.21 311.013 419.147 310.685 419.038C310.357 418.929 307.567 421.664 307.079 421.262C306.59 420.859 309.039 418.342 308.998 418.133Z" fill="#868686" stroke="#868686"/>
<path d="M316.01 412.792C315.792 412.987 307.617 414.741 307.338 414.492C307.059 414.244 310.422 407.126 310.475 407.137C310.529 407.148 316.228 412.598 316.01 412.792Z" fill="#868686" stroke="#868686"/>
<mask id="path-7-inside-1_111_191" fill="white">
<ellipse cx="313.764" cy="415.813" rx="0.941137" ry="0.975615" transform="rotate(-11.0926 313.764 415.813)"/>
</mask>
<ellipse cx="313.764" cy="415.813" rx="0.941137" ry="0.975615" transform="rotate(-11.0926 313.764 415.813)" fill="#868686"/>
<path d="M314.687 415.632L313.706 415.824C313.707 415.829 313.705 415.826 313.71 415.819C313.712 415.816 313.717 415.809 313.726 415.803C313.736 415.796 313.748 415.791 313.759 415.789L313.952 416.77L314.144 417.752C315.229 417.539 315.872 416.477 315.669 415.439L314.687 415.632ZM313.952 416.77L313.759 415.789C313.771 415.787 313.783 415.787 313.795 415.79C313.806 415.792 313.813 415.796 313.816 415.798C313.823 415.803 313.823 415.807 313.822 415.802L312.84 415.994L311.859 416.186C312.062 417.224 313.059 417.964 314.144 417.752L313.952 416.77ZM312.84 415.994L313.822 415.802C313.821 415.797 313.822 415.8 313.818 415.807C313.816 415.81 313.811 415.816 313.802 415.823C313.792 415.83 313.78 415.835 313.769 415.837L313.576 414.856L313.384 413.874C312.299 414.087 311.656 415.149 311.859 416.186L312.84 415.994ZM313.576 414.856L313.769 415.837C313.757 415.839 313.744 415.839 313.733 415.836C313.722 415.834 313.715 415.83 313.711 415.828C313.705 415.823 313.705 415.819 313.706 415.824L314.687 415.632L315.669 415.439C315.465 414.402 314.469 413.662 313.384 413.874L313.576 414.856Z" fill="#868686" mask="url(#path-7-inside-1_111_191)"/>
<ellipse cx="313.995" cy="415.768" rx="0.470588" ry="0.487805" transform="rotate(-11.0926 313.995 415.768)" fill="#868686"/>
<mask id="path-10-inside-2_111_191" fill="white">
<ellipse cx="310.762" cy="416.401" rx="0.941137" ry="0.975615" transform="rotate(-11.0926 310.762 416.401)"/>
</mask>
<ellipse cx="310.762" cy="416.401" rx="0.941137" ry="0.975615" transform="rotate(-11.0926 310.762 416.401)" fill="#868686"/>
<path d="M311.686 416.22L310.704 416.413C310.705 416.418 310.704 416.415 310.708 416.408C310.71 416.404 310.715 416.398 310.724 416.392C310.734 416.385 310.746 416.38 310.757 416.378L310.95 417.359L311.142 418.34C312.227 418.127 312.87 417.065 312.667 416.028L311.686 416.22ZM310.95 417.359L310.757 416.378C310.769 416.375 310.782 416.376 310.793 416.378C310.804 416.381 310.811 416.384 310.815 416.387C310.821 416.392 310.821 416.395 310.82 416.39L309.839 416.583L308.857 416.775C309.061 417.812 310.057 418.553 311.142 418.34L310.95 417.359ZM309.839 416.583L310.82 416.39C310.819 416.385 310.821 416.388 310.816 416.395C310.814 416.399 310.809 416.405 310.8 416.411C310.79 416.418 310.778 416.423 310.767 416.425L310.574 415.444L310.382 414.463C309.297 414.676 308.654 415.738 308.857 416.775L309.839 416.583ZM310.574 415.444L310.767 416.425C310.755 416.428 310.743 416.427 310.731 416.425C310.72 416.422 310.713 416.419 310.71 416.416C310.703 416.411 310.703 416.408 310.704 416.413L311.686 416.22L312.667 416.028C312.464 414.991 311.467 414.25 310.382 414.463L310.574 415.444Z" fill="#868686" mask="url(#path-10-inside-2_111_191)"/>
<ellipse cx="310.531" cy="416.447" rx="0.470588" ry="0.487805" transform="rotate(-11.0926 310.531 416.447)" fill="#868686"/>
<defs>
<linearGradient id="paint0_linear_111_191" x1="193.607" y1="372.109" x2="-0.558443" y2="8.33215" gradientUnits="userSpaceOnUse">
<stop stop-color="#868686"/>
</linearGradient>
</defs>
</svg>
