<svg width="201" height="197" viewBox="0 0 201 197" fill="none" preserveAspectRatio="none" xmlns="http://www.w3.org/2000/svg">
<rect width="201" height="197" fill="#8BD0FF"/>
<path d="M96.4888 26.0127C106.333 25.8149 113.736 27.945 119.236 31.3643C124.736 34.7836 128.302 39.4725 130.503 44.3399C132.703 49.2032 133.544 54.2493 133.599 58.4053C133.627 60.4837 133.458 62.3489 133.161 63.8652C132.947 64.9518 132.66 65.8863 132.317 66.5967C134.701 66.9671 137.296 68.4182 139.555 70.5186C142.076 72.8631 144.237 76.0686 145.264 79.6484C146.294 83.2366 146.185 87.2068 144.152 91.0361C142.228 94.6587 138.607 98.1068 132.709 100.991C132.704 101.004 132.699 101.017 132.695 101.029C132.387 101.883 131.961 103.111 131.489 104.605C130.544 107.597 129.418 111.651 128.688 115.922C127.957 120.199 127.631 124.66 128.261 128.477C128.892 132.291 130.464 135.39 133.468 137.077C135.924 138.456 138.286 139.922 140.578 140.627C142.828 141.32 144.928 141.251 146.906 139.626C147.789 138.9 148.024 137.935 147.896 136.75C147.765 135.536 147.261 134.183 146.745 132.78C146.244 131.419 145.722 129.99 145.665 128.744C145.636 128.108 145.725 127.485 146.021 126.925C146.321 126.359 146.809 125.902 147.504 125.563C148.33 125.162 149.036 125.1 149.62 125.48C150.136 125.815 150.434 126.435 150.673 126.98C151.199 128.179 151.631 129.448 152.936 130.061C155.276 131.159 156.922 132.61 157.91 134.272C158.899 135.938 159.208 137.788 158.925 139.642C158.361 143.335 155.459 147.01 150.962 149.452C148.379 150.855 147.006 151.374 145.511 151.453C144.779 151.492 144.032 151.424 143.131 151.329C142.224 151.233 141.139 151.106 139.691 151.012C137.128 150.845 135.699 150.099 134.338 149.19C132.999 148.296 131.79 147.298 129.552 146.482C124.683 144.706 121.88 140.826 120.409 136.093C118.941 131.373 118.78 125.763 119.203 120.412C119.626 115.055 120.638 109.918 121.542 106.124C121.994 104.226 122.42 102.662 122.733 101.571C122.739 101.552 122.745 101.532 122.751 101.513H115.361C115.344 101.709 115.323 101.966 115.297 102.281C115.234 103.074 115.146 104.232 115.048 105.69C114.853 108.608 114.619 112.728 114.463 117.533C114.151 127.149 114.152 139.496 115.398 150.46C116.251 157.965 120.699 163.266 128.019 165.03C128.236 165.082 128.394 165.037 128.55 164.908C128.732 164.758 128.917 164.483 129.093 164.068C129.446 163.241 129.68 162.068 129.899 160.873C130.11 159.721 130.311 158.517 130.608 157.756C130.685 157.559 130.775 157.371 130.887 157.211C130.998 157.053 131.15 156.893 131.359 156.8C131.846 156.582 132.293 156.843 132.613 157.163C133.241 157.792 133.75 158.761 134.13 159.848C134.515 160.945 134.785 162.208 134.914 163.466C135.042 164.723 135.03 165.994 134.838 167.105C134.649 168.204 134.271 169.212 133.613 169.87C132.395 171.088 130.719 171.616 129.004 171.783C127.287 171.95 125.475 171.761 123.916 171.493C118.812 170.615 115.835 169.087 113.68 166.5C111.563 163.958 110.274 160.423 108.435 155.698C104.818 146.406 104.725 132.736 105.208 121.384C105.328 118.539 105.485 115.832 105.634 113.369C105.783 110.905 105.924 108.688 106.01 106.815C106.097 104.939 106.129 103.429 106.066 102.371C106.045 102.025 106.013 101.74 105.974 101.513H96.4966C96.3849 101.772 96.2822 102.123 96.1988 102.575C96.0013 103.646 95.9178 105.161 95.9127 107.04C95.9024 110.795 96.2031 115.88 96.4605 121.538C96.9733 132.809 97.3153 146.341 94.5767 155.653C93.8588 158.095 93.2715 160.17 92.6422 161.917C92.0115 163.668 91.3255 165.128 90.3902 166.339C88.4964 168.792 85.6661 170.119 80.5855 170.993C79.0385 171.259 76.8625 171.571 74.7847 171.533C72.7398 171.496 70.6387 171.119 69.3853 169.866C68.727 169.208 68.3495 168.2 68.1597 167.102C67.9678 165.99 67.9562 164.719 68.0845 163.462C68.213 162.204 68.4835 160.941 68.8677 159.844C69.2485 158.757 69.7566 157.788 70.3853 157.159C70.7052 156.839 71.1523 156.578 71.6392 156.796C71.8476 156.889 72.0004 157.049 72.1109 157.207C72.2226 157.367 72.3135 157.556 72.3902 157.752C72.6873 158.513 72.8882 159.716 73.0992 160.868C73.3181 162.063 73.5523 163.237 73.9048 164.064C74.0814 164.479 74.2666 164.753 74.4478 164.903C74.6038 165.033 74.7617 165.079 74.9791 165.026C82.2995 163.262 86.7473 157.961 87.6002 150.456C88.846 139.492 88.8469 127.145 88.5347 117.529C88.3787 112.724 88.1448 108.604 87.9498 105.687C87.8523 104.228 87.7641 103.07 87.7007 102.277C87.6758 101.965 87.6538 101.708 87.6373 101.513H77.9791C78.062 101.787 78.1694 102.142 78.2925 102.571C78.6057 103.662 79.0318 105.226 79.4839 107.124C80.3879 110.918 81.3997 116.055 81.8228 121.412C82.2453 126.763 82.0842 132.373 80.6168 137.093C79.1452 141.826 76.3429 145.706 71.4732 147.482C69.2357 148.298 68.0263 149.296 66.6871 150.19C65.3261 151.099 63.8973 151.845 61.3345 152.012C59.8861 152.106 58.8014 152.233 57.8941 152.329C56.9935 152.424 56.2465 152.492 55.5142 152.453C54.02 152.374 52.6467 151.855 50.063 150.452C45.5663 148.01 42.6641 144.335 42.1002 140.642C41.8173 138.788 42.1269 136.938 43.1158 135.272C44.1031 133.61 45.7491 132.159 48.0894 131.061C49.3944 130.448 49.826 129.179 50.3521 127.98C50.5917 127.435 50.8891 126.815 51.4058 126.48C51.9899 126.1 52.6954 126.162 53.5211 126.563C54.2159 126.902 54.705 127.359 55.0045 127.925C55.3009 128.485 55.39 129.108 55.3609 129.744C55.3038 130.99 54.7819 132.419 54.2808 133.78C53.7647 135.183 53.2608 136.536 53.1295 137.75C53.0013 138.935 53.2367 139.9 54.1197 140.626C56.0976 142.251 58.197 142.32 60.4478 141.627C62.7397 140.922 65.1013 139.456 67.5572 138.077C70.5615 136.39 72.1337 133.291 72.7642 129.477C73.3949 125.66 73.0682 121.199 72.3375 116.922C71.6077 112.651 70.4813 108.597 69.5367 105.605C69.0647 104.111 68.6382 102.883 68.3306 102.029C68.2389 101.775 68.1552 101.554 68.0865 101.368C61.746 98.2996 58.1143 94.6692 56.3892 90.8818C54.6442 87.0503 54.8828 83.1312 56.1295 79.6113C57.3738 76.0981 59.6276 72.9611 61.9547 70.6445C63.1192 69.4853 64.3104 68.5233 65.4146 67.8184C66.1356 67.3581 66.8364 66.9988 67.4781 66.7686C66.8322 66.0891 66.2391 65.1778 65.7242 64.1065C65.0178 62.6366 64.4382 60.8273 64.0611 58.8086C63.307 54.7718 63.3549 49.8524 64.8599 45.0596C66.367 40.2605 69.3366 35.5873 74.4175 32.0684C79.496 28.5513 86.65 26.2106 96.4888 26.0127ZM99.4996 88.5C97.8427 88.5 96.4996 89.8432 96.4996 91.5C96.4997 93.1568 97.8428 94.5 99.4996 94.5C101.156 94.4999 102.499 93.1567 102.5 91.5C102.5 89.8432 101.156 88.5001 99.4996 88.5ZM121 74.5C117.962 74.5 115.5 76.9624 115.5 80C115.5 83.0375 117.962 85.5 121 85.5C124.037 85.4999 126.499 83.0374 126.5 80C126.5 76.9625 124.037 74.5001 121 74.5ZM78.9996 73.5C75.962 73.5 73.4996 75.9624 73.4996 79C73.4997 82.0375 75.9621 84.5 78.9996 84.5C82.037 84.4999 84.4994 82.0374 84.4996 79C84.4996 75.9625 82.037 73.5001 78.9996 73.5Z" fill="white"/>
</svg>
