<svg width="512" height="768" viewBox="0 0 512 768" fill="none" xmlns="http://www.w3.org/2000/svg">
<rect width="512" height="768" fill="url(#paint0_linear_99_307)"/>
<path d="M256.367 305.236C279.2 277.571 304.802 269.526 326.629 271.214C348.757 272.925 366.962 284.655 374.103 295.762C381.133 306.698 385.562 324.671 384.996 344.211C384.429 363.796 378.84 385.22 365.523 403.041C352.352 420.666 336.137 435.237 317.878 449.828C299.51 464.507 279.363 478.996 257.695 496.886L256.455 497.909L255.189 496.92L255.187 496.918C255.186 496.917 255.184 496.915 255.182 496.914C255.177 496.91 255.17 496.905 255.161 496.898C255.144 496.884 255.118 496.864 255.083 496.837C255.014 496.782 254.91 496.7 254.773 496.593C254.498 496.376 254.089 496.054 253.551 495.627C252.475 494.772 250.88 493.499 248.801 491.822C244.643 488.467 238.548 483.494 230.796 477.015C215.292 464.058 193.155 445.079 166.614 420.98C139.78 396.616 129.005 372.272 126.564 350.903C124.128 329.579 130.014 311.431 136.14 299.434C139.396 293.058 146.02 287.219 154.574 282.819C163.163 278.401 173.866 275.344 185.524 274.649C208.321 273.291 234.829 280.969 256.367 305.236ZM214.353 445.785C213.475 445.308 212.329 445.276 211.355 445.629C210.673 445.876 210.058 446.31 209.578 446.923C208.858 446.929 208.189 447.113 207.623 447.409C207.114 447.676 206.669 448.039 206.328 448.461C206.054 448.801 205.751 449.302 205.652 449.92L205.622 450.192C205.587 450.827 205.677 451.755 206.227 452.674C206.8 453.632 207.755 454.381 209.091 454.802C210.051 455.105 210.841 455.329 211.395 455.479C211.672 455.554 211.891 455.611 212.042 455.649C212.117 455.668 212.176 455.683 212.217 455.693C212.238 455.698 212.255 455.702 212.267 455.705C212.272 455.706 212.276 455.708 212.28 455.709C212.281 455.709 212.283 455.709 212.284 455.71L212.287 455.711L213.825 456.073L214.534 454.661C214.899 453.935 215.118 453.591 215.504 452.852C215.825 452.237 216.159 451.523 216.349 450.7C216.594 449.635 216.408 448.627 216.084 447.848C215.798 447.159 215.317 446.445 214.659 445.976L214.525 445.885L214.353 445.785ZM210.954 453.278C212.059 453.6 212.727 453.759 212.746 453.763C212.727 453.759 212.056 453.6 210.947 453.276L210.954 453.278ZM214.439 450.035C214.429 450.107 214.417 450.179 214.401 450.251L214.351 450.443C214.368 450.379 214.385 450.315 214.4 450.251C214.416 450.179 214.429 450.107 214.439 450.035ZM278.702 346.073C271.464 345.516 263.139 348.062 255.693 356.413C248.581 349.104 240.024 346.744 232.599 347.184C228.627 347.42 224.96 348.456 221.992 349.975C219.061 351.476 216.641 353.537 215.407 355.941C210.952 364.624 211.938 379.01 229.618 394.984C238.183 402.722 244.324 409.288 248.314 413.905C250.309 416.213 251.766 418.036 252.72 419.273C253.197 419.892 253.548 420.365 253.778 420.679C253.892 420.836 253.976 420.954 254.031 421.031C254.058 421.069 254.078 421.097 254.09 421.115C254.096 421.123 254.1 421.13 254.103 421.134L254.105 421.135V421.136L255.34 422.926L257.021 421.545C271.278 409.832 279.544 399.538 288.058 388.201C292.442 382.363 295.436 375.987 296.756 370.118C298.062 364.312 297.793 358.679 295.181 354.635C292.592 350.628 286.251 346.654 278.702 346.073ZM254.304 418.052L254.923 418.866C254.731 418.61 254.504 418.313 254.243 417.975C254.263 418.001 254.284 418.026 254.304 418.052ZM253.405 416.905C253.694 417.269 253.956 417.604 254.191 417.907C253.956 417.604 253.694 417.269 253.405 416.905ZM252.37 415.625C252.646 415.961 252.904 416.28 253.145 416.581C252.904 416.28 252.646 415.962 252.37 415.625ZM251.748 414.867C251.827 414.961 251.903 415.055 251.979 415.147C251.903 415.055 251.827 414.961 251.748 414.867ZM361.3 405.256C361.45 405.066 361.599 404.875 361.748 404.684C361.599 404.875 361.45 405.065 361.3 405.256ZM362.372 403.879C362.478 403.741 362.586 403.606 362.692 403.468L362.907 403.182C362.73 403.415 362.551 403.647 362.372 403.879ZM363.92 401.843C363.797 402.008 363.672 402.171 363.548 402.335L363.921 401.843C364.05 401.671 364.177 401.497 364.304 401.324C364.176 401.497 364.049 401.671 363.92 401.843ZM215.555 361.593C215.568 361.528 215.582 361.464 215.595 361.399C215.582 361.464 215.568 361.528 215.555 361.593ZM263.643 352.085L262.912 352.581C263.155 352.41 263.399 352.245 263.642 352.085L264.373 351.62C264.13 351.769 263.886 351.925 263.643 352.085ZM128.417 349.421C128.457 349.821 128.498 350.222 128.544 350.625C128.498 350.222 128.457 349.821 128.417 349.421ZM128.271 347.797C128.304 348.217 128.342 348.638 128.382 349.06C128.342 348.638 128.304 348.217 128.271 347.797ZM378.5 323C377.672 323 377 323.671 377 324.5C377 325.328 377.672 326 378.5 326C379.329 326 380 325.328 380 324.5C380 323.672 379.328 323 378.5 323ZM371.192 307.641C374.376 311.445 375.482 315.724 377 320.787L378.916 320.213C377.436 315.276 376.229 310.544 372.725 306.358L371.192 307.641ZM143.084 299.166C142.067 299.132 140.607 299.311 139.19 300.203C137.733 301.119 136.515 302.665 135.833 305.01C135.261 306.975 134.84 308.59 134.562 309.718C134.423 310.281 134.319 310.724 134.249 311.027C134.215 311.179 134.188 311.296 134.17 311.377C134.161 311.417 134.155 311.448 134.151 311.469C134.148 311.48 134.147 311.489 134.146 311.495C134.145 311.498 134.144 311.5 134.144 311.502L134.143 311.505V311.506L133.815 313.051L135.24 313.729C136.712 314.428 137.7 314.994 139.056 315.665C140.286 316.273 141.585 316.836 143.03 317.135C144.717 317.485 146.337 317.162 147.615 316.596C148.852 316.05 150.003 315.171 150.639 314.126C151.379 312.908 151.488 311.066 150.86 309.444C150.358 308.15 149.393 306.984 147.911 306.2C148.11 304.645 147.759 303.216 147.129 302.073C146.69 301.277 146.107 300.6 145.461 300.102C144.849 299.63 144.019 299.197 143.084 299.166ZM142.553 314.951C142.844 315.039 143.138 315.116 143.436 315.177H143.435L142.99 315.074C142.844 315.036 142.698 314.995 142.553 314.951ZM256.42 308.343V308.343C256.066 307.925 255.71 307.514 255.353 307.106C255.71 307.514 256.066 307.926 256.42 308.343ZM255.147 306.873C254.802 306.482 254.458 306.094 254.111 305.712C254.458 306.094 254.802 306.482 255.147 306.873ZM252.961 304.466C253.346 304.876 253.729 305.291 254.111 305.712C253.729 305.291 253.346 304.876 252.961 304.466ZM252.77 304.263C252.448 303.923 252.126 303.585 251.803 303.252C252.126 303.585 252.448 303.923 252.77 304.263ZM251.623 303.066C251.258 302.691 250.892 302.321 250.525 301.956C250.892 302.321 251.258 302.691 251.623 303.066ZM366.251 299.207C366.683 299.638 367.386 300.569 368.02 301.456C368.327 301.886 368.605 302.287 368.805 302.58C368.905 302.726 368.986 302.845 369.041 302.927C369.069 302.968 369.09 303.001 369.105 303.022C369.112 303.033 369.118 303.041 369.121 303.047C369.123 303.049 369.124 303.051 369.125 303.052L369.126 303.054L370.79 301.945V301.944L370.788 301.942C370.787 301.941 370.785 301.938 370.783 301.935L370.699 301.809C370.642 301.724 370.558 301.601 370.455 301.451C370.25 301.15 369.964 300.738 369.647 300.294C369.031 299.431 368.234 298.361 367.665 297.793L366.251 299.207ZM250.444 301.875C250.1 301.534 249.756 301.198 249.41 300.865C249.756 301.198 250.1 301.534 250.444 301.875ZM246.898 298.527C247.671 299.221 248.439 299.933 249.202 300.665C248.439 299.933 247.671 299.221 246.898 298.527ZM246.792 298.432C246.43 298.108 246.067 297.788 245.702 297.472C246.067 297.788 246.43 298.108 246.792 298.432ZM245.558 297.346C245.168 297.01 244.777 296.678 244.385 296.35C244.777 296.678 245.168 297.01 245.558 297.346ZM372.42 296.843C372.432 296.862 372.444 296.88 372.455 296.898L372.421 296.843C372.316 296.679 372.208 296.515 372.097 296.35C372.059 296.294 372.019 296.238 371.981 296.181C372.132 296.402 372.279 296.623 372.42 296.843ZM244.3 296.28C243.938 295.978 243.574 295.68 243.21 295.385C243.574 295.68 243.938 295.978 244.3 296.28ZM371.953 296.142C371.888 296.047 371.823 295.951 371.756 295.856C371.683 295.752 371.607 295.648 371.532 295.544C371.676 295.744 371.817 295.943 371.953 296.142ZM243.079 295.279C242.994 295.21 242.91 295.141 242.824 295.073C242.527 294.835 242.228 294.602 241.93 294.37C242.314 294.669 242.697 294.971 243.079 295.279ZM370.969 294.789C370.823 294.599 370.673 294.409 370.521 294.218C370.673 294.409 370.823 294.599 370.969 294.789ZM241.85 294.307C241.812 294.278 241.775 294.248 241.738 294.218C241.382 293.943 241.025 293.671 240.667 293.403C241.063 293.7 241.456 294.002 241.85 294.307ZM323.867 275.996C332.681 276.798 339.185 278.098 345.074 280.798C350.96 283.495 356.306 287.625 362.743 294.199L364.173 292.801C357.644 286.133 352.101 281.818 345.908 278.979C339.72 276.143 332.957 274.814 324.049 274.004L323.867 275.996ZM370.367 294.029C370.217 293.844 370.064 293.659 369.907 293.474C370.064 293.659 370.217 293.844 370.367 294.029ZM369.871 293.431C369.686 293.213 369.495 292.995 369.301 292.777C369.495 292.995 369.686 293.213 369.871 293.431ZM240.449 293.242C240.122 292.998 239.794 292.757 239.466 292.518C239.794 292.756 240.122 292.998 240.449 293.242ZM369.196 292.66C369.031 292.476 368.863 292.292 368.692 292.109C368.863 292.293 369.031 292.476 369.196 292.66ZM239.224 292.343C238.869 292.087 238.514 291.835 238.157 291.587C238.514 291.835 238.869 292.087 239.224 292.343ZM368.618 292.031C368.575 291.985 368.532 291.938 368.489 291.891C368.333 291.727 368.175 291.562 368.015 291.398H368.014C368.22 291.609 368.421 291.82 368.618 292.031ZM238.037 291.502C237.669 291.245 237.3 290.992 236.93 290.743L236.79 290.65C237.207 290.929 237.623 291.213 238.037 291.502ZM236.782 290.644C236.386 290.379 235.989 290.118 235.591 289.861C235.989 290.118 236.385 290.379 236.782 290.644ZM235.401 289.739C235.015 289.491 234.629 289.246 234.241 289.006C234.629 289.246 235.015 289.491 235.401 289.739ZM365.686 289.178C365.556 289.062 365.422 288.949 365.289 288.834C365.422 288.949 365.556 289.063 365.686 289.178ZM234.198 288.978C234.134 288.939 234.072 288.899 234.009 288.86C233.667 288.649 233.325 288.442 232.982 288.237C233.388 288.48 233.793 288.727 234.198 288.978ZM364.799 288.409C364.632 288.267 364.462 288.128 364.292 287.987C364.462 288.128 364.632 288.267 364.799 288.409ZM231.626 287.445C232.079 287.704 232.531 287.968 232.982 288.237C232.951 288.219 232.921 288.201 232.89 288.182C232.516 287.96 232.142 287.741 231.768 287.525L231.626 287.445ZM363.935 287.691C363.769 287.557 363.601 287.424 363.433 287.291C363.601 287.424 363.769 287.557 363.935 287.691ZM231.568 287.412C231.199 287.201 230.83 286.995 230.46 286.791C230.83 286.995 231.199 287.201 231.568 287.412ZM362.984 286.936C362.821 286.81 362.657 286.685 362.492 286.56C362.657 286.685 362.821 286.81 362.984 286.936ZM230.032 286.556C229.764 286.411 229.496 286.266 229.228 286.124C229.496 286.266 229.764 286.411 230.032 286.556ZM362.046 286.224C361.865 286.089 361.681 285.955 361.496 285.821C361.681 285.955 361.865 286.089 362.046 286.224ZM228.748 285.873C228.488 285.737 228.228 285.603 227.968 285.47C228.228 285.603 228.488 285.737 228.748 285.873ZM361.036 285.491C360.863 285.368 360.689 285.245 360.513 285.123C360.689 285.245 360.863 285.368 361.036 285.491ZM227.526 285.247C227.236 285.102 226.946 284.959 226.657 284.818C226.946 284.959 227.236 285.102 227.526 285.247ZM360.01 284.778C359.834 284.658 359.656 284.539 359.477 284.42C359.656 284.539 359.834 284.658 360.01 284.778ZM226.306 284.647C225.956 284.479 225.606 284.314 225.256 284.151C225.606 284.314 225.956 284.479 226.306 284.647ZM225.052 284.055C224.649 283.87 224.246 283.687 223.842 283.509L223.77 283.477C224.198 283.666 224.625 283.859 225.052 284.055ZM223.743 283.466C223.351 283.293 222.958 283.124 222.565 282.959C222.958 283.124 223.351 283.293 223.743 283.466ZM357.908 283.409L357.203 282.976C357.167 282.954 357.13 282.933 357.093 282.911C357.367 283.076 357.639 283.241 357.908 283.409ZM222.131 282.779C221.863 282.668 221.596 282.557 221.327 282.449C221.596 282.557 221.863 282.668 222.131 282.779ZM356.123 282.338C356.232 282.4 356.339 282.465 356.447 282.528C356.339 282.465 356.232 282.4 356.123 282.338ZM220.822 282.248C220.571 282.149 220.32 282.052 220.07 281.956C220.32 282.052 220.571 282.149 220.822 282.248ZM355.135 281.779C355.096 281.757 355.058 281.735 355.019 281.714C354.899 281.647 354.777 281.584 354.657 281.518C354.816 281.605 354.977 281.691 355.135 281.779ZM219.564 281.763C219.313 281.669 219.063 281.577 218.813 281.485C219.063 281.577 219.313 281.669 219.564 281.763ZM288.536 281.014C288.29 281.141 288.045 281.271 287.798 281.4C288.102 281.24 288.406 281.082 288.71 280.927L288.536 281.014ZM218.323 281.306C218.045 281.207 217.767 281.11 217.49 281.014C217.767 281.11 218.045 281.207 218.323 281.306ZM354.081 281.208C353.933 281.129 353.784 281.051 353.634 280.972C353.784 281.051 353.933 281.129 354.081 281.208ZM217.09 280.875C216.675 280.734 216.26 280.596 215.845 280.463C216.26 280.596 216.675 280.734 217.09 280.875ZM352.993 280.642C352.908 280.599 352.823 280.554 352.738 280.51C352.669 280.476 352.599 280.442 352.53 280.408C352.685 280.485 352.839 280.564 352.993 280.642ZM351.877 280.088C351.741 280.021 351.605 279.954 351.468 279.888C351.605 279.954 351.741 280.021 351.877 280.088ZM349.925 279.177C350.185 279.293 350.444 279.41 350.7 279.529C350.444 279.41 350.185 279.293 349.925 279.177ZM211.272 279.134L210.13 278.845C210.094 278.837 210.058 278.828 210.022 278.819C210.438 278.92 210.855 279.025 211.272 279.134ZM349.267 278.885C349.102 278.812 348.935 278.742 348.769 278.671C348.935 278.742 349.102 278.813 349.267 278.885ZM209.777 278.761C209.438 278.68 209.099 278.601 208.761 278.524C209.099 278.601 209.438 278.68 209.777 278.761ZM208.443 278.454C208.141 278.387 207.84 278.321 207.538 278.258C207.84 278.321 208.141 278.387 208.443 278.454ZM346.593 277.787C347.109 277.987 347.621 278.19 348.126 278.4C348.05 278.368 347.974 278.335 347.897 278.303C347.618 278.189 347.338 278.076 347.056 277.965C346.902 277.904 346.747 277.847 346.593 277.787ZM207.091 278.167C206.814 278.11 206.538 278.054 206.261 278.001C206.538 278.054 206.814 278.11 207.091 278.167ZM205.874 277.927C205.581 277.872 205.288 277.818 204.995 277.766C205.288 277.818 205.581 277.872 205.874 277.927ZM204.639 277.705C204.344 277.654 204.049 277.604 203.754 277.556C204.049 277.604 204.344 277.654 204.639 277.705ZM346.01 277.562C345.818 277.49 345.626 277.419 345.433 277.348C345.626 277.419 345.818 277.49 346.01 277.562ZM203.367 277.495C203.065 277.447 202.763 277.401 202.461 277.357C202.763 277.401 203.065 277.447 203.367 277.495ZM202.161 277.314C201.861 277.272 201.562 277.231 201.262 277.192C201.562 277.231 201.861 277.272 202.161 277.314ZM200.844 277.138C200.578 277.105 200.311 277.073 200.045 277.043C200.311 277.073 200.578 277.105 200.844 277.138ZM344.844 277.135C344.722 277.092 344.6 277.046 344.478 277.003C344.384 276.97 344.29 276.939 344.197 276.907C344.413 276.982 344.629 277.059 344.844 277.135ZM199.576 276.99C199.351 276.965 199.125 276.942 198.9 276.92C199.125 276.942 199.351 276.965 199.576 276.99ZM198.294 276.86C198.092 276.841 197.89 276.824 197.688 276.806C197.89 276.824 198.092 276.841 198.294 276.86ZM197.085 276.756C196.834 276.736 196.582 276.717 196.331 276.7C196.582 276.717 196.834 276.736 197.085 276.756ZM343.674 276.728C343.444 276.65 343.213 276.573 342.981 276.497C343.213 276.573 343.444 276.65 343.674 276.728ZM195.928 276.672C195.673 276.655 195.418 276.642 195.163 276.628C195.418 276.642 195.673 276.655 195.928 276.672ZM191.049 276.5C191.849 276.504 192.653 276.52 193.46 276.549C192.653 276.52 191.849 276.504 191.049 276.5ZM336.775 274.777C336.705 274.761 336.635 274.746 336.566 274.73C336.635 274.746 336.705 274.761 336.775 274.777ZM335.446 274.487C335.408 274.479 335.371 274.47 335.333 274.463C335.015 274.397 334.696 274.333 334.376 274.271C334.361 274.268 334.345 274.265 334.329 274.262C334.703 274.334 335.075 274.41 335.446 274.487ZM334.005 274.202C333.715 274.148 333.424 274.096 333.132 274.045C333.424 274.096 333.715 274.148 334.005 274.202ZM332.707 273.971C332.45 273.928 332.192 273.887 331.933 273.846C332.192 273.887 332.45 273.928 332.707 273.971ZM331.475 273.775C331.144 273.726 330.811 273.678 330.478 273.633C330.431 273.626 330.385 273.62 330.338 273.614C330.719 273.665 331.097 273.719 331.475 273.775ZM330.011 273.572C329.836 273.55 329.662 273.527 329.487 273.506C329.314 273.485 329.141 273.465 328.967 273.445C329.316 273.485 329.664 273.527 330.011 273.572ZM328.81 273.427C328.385 273.38 327.959 273.336 327.532 273.297C327.959 273.336 328.385 273.38 328.81 273.427Z" fill="white"/>
<defs>
<linearGradient id="paint0_linear_99_307" x1="193.607" y1="372.109" x2="-0.558443" y2="8.33215" gradientUnits="userSpaceOnUse">
<stop stop-color="#8AD0FF"/>
<stop offset="0.640902" stop-color="#55A4DA"/>
</linearGradient>
</defs>
</svg>
